<svg width="22" height="22" viewBox="0 0 22 22" fill="none" xmlns="http://www.w3.org/2000/svg">
<path d="M10.9997 1.83301C5.93967 1.83301 1.83301 5.93967 1.83301 10.9997C1.83301 16.0597 5.93967 20.1663 10.9997 20.1663C16.0597 20.1663 20.1663 16.0597 20.1663 10.9997C20.1663 5.93967 16.0597 1.83301 10.9997 1.83301ZM15.253 8.06634C15.1155 9.51467 14.5197 13.0347 14.2172 14.6572C14.0888 15.3447 13.8322 15.5738 13.5938 15.6013C13.0622 15.6472 12.6588 15.253 12.1455 14.9138C11.3388 14.3822 10.8805 14.0522 10.1013 13.5388C9.19384 12.943 9.78051 12.613 10.303 12.0813C10.4405 11.9438 12.7872 9.80801 12.833 9.61551C12.8394 9.58635 12.8385 9.55608 12.8305 9.52733C12.8226 9.49857 12.8077 9.4722 12.7872 9.45051C12.7322 9.40467 12.6588 9.42301 12.5947 9.43217C12.5122 9.45051 11.2288 10.303 8.72634 11.9897C8.35967 12.2372 8.02967 12.3655 7.73634 12.3563C7.40634 12.3472 6.78301 12.173 6.31551 12.0172C5.73801 11.8338 5.28884 11.733 5.32551 11.4122C5.34384 11.2472 5.57301 11.0822 6.00384 10.908C8.68051 9.74384 10.4588 8.97384 11.348 8.60717C13.8963 7.54384 14.4188 7.36051 14.7672 7.36051C14.8405 7.36051 15.0147 7.37884 15.1247 7.47051C15.2163 7.54384 15.2438 7.64467 15.253 7.71801C15.2438 7.77301 15.2622 7.93801 15.253 8.06634Z" fill="white"/>
</svg>
